<svg width="14" height="12" viewBox="0 0 14 12" xmlns="http://www.w3.org/2000/svg"><title>Shape Copy 3</title><path d="M12.093 1.774c.641-.368 1.057-.892 1.25-1.57-.619.368-1.221.602-1.801.698C10.979.3 10.3 0 9.505 0 8.71 0 8.042.272 7.499.815c-.543.542-.813 1.211-.813 2.006 0 .29.019.504.058.639C4.379 3.344 2.451 2.365.959.524A2.796 2.796 0 0 0 .58 1.919c0 1.028.418 1.813 1.252 2.355a2.65 2.65 0 0 1-1.281-.349v.029c0 .678.219 1.274.654 1.788a2.85 2.85 0 0 0 1.614.974c-.31.077-.562.116-.756.116-.116 0-.291-.019-.522-.058.174.562.504 1.021.987 1.381a2.828 2.828 0 0 0 1.629.567c-1.028.813-2.19 1.221-3.489 1.221-.136 0-.358-.02-.668-.059a7.754 7.754 0 0 0 4.303 1.279c2.423 0 4.365-.828 5.828-2.485 1.465-1.657 2.197-3.504 2.197-5.538v-.35a5.537 5.537 0 0 0 1.395-1.454 4.78 4.78 0 0 1-1.63.438" fill="#356E88" fill-rule="evenodd"/></svg>