<?xml version="1.0" encoding="UTF-8"?>
<svg width="14px" height="12px" viewBox="0 0 14 12" version="1.1" xmlns="http://www.w3.org/2000/svg" xmlns:xlink="http://www.w3.org/1999/xlink">
    <!-- Generator: Sketch 48.2 (47327) - http://www.bohemiancoding.com/sketch -->
    <title>Shape Copy 3</title>
    <desc>Created with Sketch.</desc>
    <defs></defs>
    <g id="1200_Definitivi-regionali" stroke="none" stroke-width="1" fill="none" fill-rule="evenodd" transform="translate(-891.000000, -2322.000000)">
        <g id="Group-8" transform="translate(881.000000, 855.000000)" fill="#356E88">
            <g id="Tweet" transform="translate(0.000000, 1422.000000)">
                <path d="M22.093,46.774 C22.734,46.406 23.15,45.882 23.343,45.204 C22.724,45.572 22.122,45.806 21.542,45.902 C20.979,45.3 20.3,45 19.505,45 C18.71,45 18.042,45.272 17.499,45.815 C16.956,46.357 16.686,47.026 16.686,47.821 C16.686,48.111 16.705,48.325 16.744,48.46 C14.379,48.344 12.451,47.365 10.959,45.524 C10.707,45.969 10.58,46.435 10.58,46.919 C10.58,47.947 10.998,48.732 11.832,49.274 C11.404,49.274 10.978,49.158 10.551,48.925 L10.551,48.954 C10.551,49.632 10.77,50.228 11.205,50.742 C11.643,51.256 12.18,51.58 12.819,51.716 C12.509,51.793 12.257,51.832 12.063,51.832 C11.947,51.832 11.772,51.813 11.541,51.774 C11.715,52.336 12.045,52.795 12.528,53.155 C13.013,53.514 13.556,53.703 14.157,53.722 C13.129,54.535 11.967,54.943 10.668,54.943 C10.532,54.943 10.31,54.923 10,54.884 C11.317,55.738 12.752,56.163 14.303,56.163 C16.726,56.163 18.668,55.335 20.131,53.678 C21.596,52.021 22.328,50.174 22.328,48.14 L22.328,47.79 C22.908,47.363 23.373,46.879 23.723,46.336 C23.237,46.57 22.695,46.716 22.093,46.774" id="Shape-Copy-3"></path>
            </g>
        </g>
    </g>
</svg>